<mxfile host="drawio-plugin" modified="2024-06-26T13:20:46.276Z" agent="5.0 (Macintosh; Intel Mac OS X 14_5_0) AppleWebKit/537.36 (KHTML, like Gecko) Chrome/87.0.4280.66 Safari/537.36" etag="K09DtUnfcgRMmKv6I7qb" version="14.7.4" type="embed"><diagram name="Page-1" id="lnrsdPn40qcqsZbx_0sn"><mxGraphModel dx="731" dy="659" grid="1" gridSize="10" guides="1" tooltips="1" connect="1" arrows="1" fold="1" page="1" pageScale="1" pageWidth="850" pageHeight="1100" math="0" shadow="0"><root><mxCell id="0"/><mxCell id="1" parent="0"/><mxCell id="5" style="edgeStyle=orthogonalEdgeStyle;rounded=0;orthogonalLoop=1;jettySize=auto;html=1;" edge="1" parent="1" source="2" target="4"><mxGeometry relative="1" as="geometry"/></mxCell><mxCell id="2" value="phone&lt;br&gt;name" style="html=1;dashed=0;whitespace=wrap;shape=mxgraph.dfd.externalEntity" vertex="1" parent="1"><mxGeometry x="20" y="40" width="100" height="100" as="geometry"/></mxCell><mxCell id="3" value="Id" style="autosize=1;part=1;resizable=0;strokeColor=inherit;fillColor=inherit;gradientColor=inherit;" vertex="1" parent="2"><mxGeometry width="20" height="20" relative="1" as="geometry"><mxPoint x="15" y="15" as="offset"/></mxGeometry></mxCell><mxCell id="4" value="booking" style="shape=ellipse;html=1;dashed=0;whitespace=wrap;aspect=fixed;perimeter=ellipsePerimeter;" vertex="1" parent="1"><mxGeometry x="240" y="35" width="110" height="110" as="geometry"/></mxCell></root></mxGraphModel></diagram></mxfile>